<svg width="1039" height="564" viewBox="0 0 1039 564" fill="none" xmlns="http://www.w3.org/2000/svg">
<g opacity="0.1">
<path d="M288.418 57.7015C220.14 -28.9031 82.5236 -7.01041 44.9284 96.4372L7 200.801L39.1574 193.486C82.9541 183.523 128.432 201.175 153.805 237.986C163.395 251.9 168.787 268.242 169.346 285.093L173.673 415.384C178.456 559.393 270.622 686.183 406.793 736.079C472.006 759.975 542.829 764.446 610.566 748.944L1264 599.4L816.817 416.856C658.621 352.279 511.711 263.267 381.535 153.12L376.424 148.796C344.088 121.435 314.604 90.9168 288.418 57.7015Z" stroke="#DF6AF2" stroke-width="8"/>
<path d="M455.166 346.691C349.268 334.026 278.993 452.681 341.635 538.379L355.297 557.069C404.399 624.243 490.298 654.18 570.925 632.217L1264 443.427L455.166 346.691Z" stroke="#DF6AF2" stroke-width="8"/>
</g>
</svg>
